<?xml version="1.0" encoding="UTF-8" standalone="no"?>
<!-- Created with Inkscape (http://www.inkscape.org/) -->

<svg
   xmlns:dc="http://purl.org/dc/elements/1.1/"
   xmlns:cc="http://creativecommons.org/ns#"
   xmlns:rdf="http://www.w3.org/1999/02/22-rdf-syntax-ns#"
   xmlns:svg="http://www.w3.org/2000/svg"
   xmlns="http://www.w3.org/2000/svg"
   version="1.1"
   width="502.375"
   height="94.25"
   id="svg4562">
  <defs
     id="defs4564" />
  <g
     transform="translate(-205.95536,-442.38004)"
     id="layer1">
    <path
       d="m 339.45536,443.38004 c -6.26281,0 -10.33336,1.6901 -13.0625,3.71875 -3.69319,2.7881 -6.125,7.35099 -6.125,15.71875 0,8.95728 2.89305,12.2489 11.5625,16.8125 2.89213,1.51889 5.80139,2.70301 7.96875,3.96875 2.0876,1.26921 3.4375,2.11262 3.4375,6 0,2.62511 -0.96908,5.34375 -3.9375,5.34375 -2.8089,0 -4,-2.38226 -4,-5.34375 l 0,-2.78125 -15.59375,0 0,1.59375 c 0,13.2712 6.74837,17.6875 19.03125,17.6875 14.85598,0 21.03125,-5.59435 21.03125,-19.625 0,-21.55227 -23.90625,-15.37647 -23.90625,-27.375 0,-2.45172 1.28086,-4.5625 3.6875,-4.5625 2.72914,0 3.78125,2.3713 3.78125,4.90625 l 0,2.4375 15.09375,0 c 0,-10.05657 -2.7534,-18.5 -18.96875,-18.5 z m -110.09375,1.1875 0,19.9375 -0.15625,0 c -1.44607,-4.14053 -5.48104,-6.5 -9.65625,-6.5 -10.83682,0 -12.59375,10.46783 -12.59375,23.3125 0,10.81601 -0.007,24.78125 13.5625,24.78125 6.74483,0 8.34447,-4.23893 8.90625,-6.4375 l 0.1875,0 0,5.25 15.3125,0 0,-60.34375 -15.5625,0 z m 265.34375,0 0,19.9375 -0.15625,0 c -1.4426,-4.14053 -5.44979,-6.5 -9.625,-6.5 -10.83682,0 -12.625,10.46783 -12.625,23.3125 0,10.81601 -0.007,24.78125 13.5625,24.78125 6.74484,0 8.37572,-4.23893 8.9375,-6.4375 l 0.15625,0 0,5.25 15.3125,0 0,-60.34375 -15.5625,0 z m 112.0625,0 0,19.9375 -0.1875,0 c -1.4426,-4.14053 -5.44979,-6.5 -9.625,-6.5 -10.83682,0 -12.59375,10.46783 -12.59375,23.3125 0,10.81601 -0.007,24.78125 13.5625,24.78125 6.74484,0 8.34447,-4.23893 8.90625,-6.4375 l 0.15625,0 0,5.25 15.34375,0 0,-60.34375 -15.5625,0 z m -241.625,1.1875 0,13.4375 -4.71875,0 0,10.65625 4.71875,0 0,25.09375 c 0,10.31318 4.43155,10.625 13.34375,10.625 2.33035,0 6.40095,-0.33008 7.6875,-0.5 l 0,-10.90625 c -0.56178,0.16992 -1.26543,0.25 -2.46875,0.25 -2.56963,0 -2.96875,-1.26073 -2.96875,-4.21875 l 0,-20.34375 5.4375,0 0,-10.65625 -5.4375,0 0,-13.4375 -15.59375,0 z m 321.125,0 0,13.4375 -4.71875,0 0,10.65625 4.71875,0 0,25.09375 c 0,10.31318 4.43155,10.625 13.34375,10.625 2.32688,0 6.4322,-0.33008 7.71875,-0.5 l 0,-10.90625 c -0.56178,0.16992 -1.29668,0.25 -2.5,0.25 -2.56963,0 -2.96875,-1.26073 -2.96875,-4.21875 l 0,-20.34375 5.46875,0 0,-10.65625 -5.46875,0 0,-13.4375 -15.59375,0 z m -418.3125,12.25 c -17.18286,0 -19.03125,11.15533 -19.03125,24 0,12.92789 1.84839,24.09375 19.03125,24.09375 5.29877,0 9.69835,-1.26388 12.75,-3.96875 3.05165,-2.70487 4.65625,-7.02884 4.65625,-13.28125 l -14.125,0 c 0,4.64683 -0.32682,7.59375 -3.375,7.59375 -3.21117,0 -3.375,-3.26703 -3.375,-5.71875 l 0,-6 21.375,0 0,-0.78125 c 0,-14.28033 -0.16508,-25.9375 -17.90625,-25.9375 z m 46.40625,0 c -4.25497,0 -7.72418,3.54382 -9.25,7.9375 l -0.15625,0 0,-6.75 -15.09375,0 0,45.71875 15.59375,0 0,-23.65625 c 0,-5.40627 1.27772,-8.375 6.65625,-8.375 1.60558,0 2.24398,0.0105 2.96875,0.0937 0.7213,0.0832 1.37572,0.16677 1.9375,0.25 l 0,-14.96875 c -0.48202,-0.0867 -0.97091,-0.25 -2.65625,-0.25 z m 93.65625,0 c -12.36611,0 -17.5,5.06528 -17.5,15.375 l 13.65625,0 c 0,-2.62164 0.45907,-5.25 3.75,-5.25 1.68534,0 2.96875,1.2807 2.96875,3.5625 0,2.95802 -1.10133,3.95931 -4.3125,4.71875 l -7.25,1.78125 c -5.86402,1.43566 -10.34375,4.23174 -10.34375,14.375 0,8.87059 3.54531,13.53125 11.8125,13.53125 4.41795,0 8.33917,-1.61338 10.1875,-6.09375 l 0.15625,0.0937 c 0,1.51889 0.15697,3.20692 0.71875,4.8125 l 14.625,0 c -0.96404,-2.11535 -1.4375,-4.41622 -1.4375,-6.78125 l 0,-26.9375 c 0,-7.09855 -2.82028,-13.1875 -17.03125,-13.1875 z m 49.125,0 c -5.21554,0 -9.14187,1.92588 -11.46875,6.40625 l -0.15625,0 0,-5.21875 -15.09375,0 0,45.71875 15.5625,0 0,-30.25 c 0,-2.61818 1.0374,-4.5 3.125,-4.5 2.00785,0 3.0625,1.03569 3.0625,4.5 l 0,30.25 15.5625,0 0,-35.34375 c 0,-8.36429 -5.05223,-11.5625 -10.59375,-11.5625 z m 76.15625,0 c -12.36611,0 -17.5,5.06528 -17.5,15.375 l 13.65625,0 c 0,-2.62164 0.48686,-5.25 3.78125,-5.25 1.68534,0 2.96875,1.2807 2.96875,3.5625 0,2.95802 -1.13258,3.95931 -4.34375,4.71875 l -7.21875,1.78125 c -5.86055,1.43566 -10.375,4.23174 -10.375,14.375 0,8.87059 3.54184,13.53125 11.8125,13.53125 4.41449,0 8.34264,-1.61338 10.1875,-6.09375 l 0.15625,0.0937 c 0,1.51889 0.15697,3.20692 0.71875,4.8125 l 14.625,0 c -0.96404,-2.11535 -1.4375,-4.41622 -1.4375,-6.78125 l 0,-26.9375 c 0,-7.09855 -2.82028,-13.1875 -17.03125,-13.1875 z m 46.34375,0 c -4.25497,0 -7.72418,3.54382 -9.25,7.9375 l -0.15625,0 0,-6.75 -15.09375,0 0,45.71875 15.5625,0 0,-23.65625 c 0,-5.40627 1.30897,-8.375 6.6875,-8.375 1.60558,0 2.24398,0.0105 2.96875,0.0937 0.7213,0.0832 1.34447,0.16677 1.90625,0.25 l 0,-14.96875 c -0.48202,-0.0867 -0.93619,-0.25 -2.625,-0.25 z m 82.0625,0 c -12.36264,0 -17.5,5.06528 -17.5,15.375 l 13.65625,0 c 0,-2.62164 0.49032,-5.25 3.78125,-5.25 1.68534,0 2.96875,1.2807 2.96875,3.5625 0,2.95802 -1.13258,3.95931 -4.34375,4.71875 l -7.21875,1.78125 c -5.86402,1.43566 -10.375,4.23174 -10.375,14.375 0,8.87059 3.54531,13.53125 11.8125,13.53125 4.41449,0 8.33917,-1.61338 10.1875,-6.09375 l 0.15625,0.0937 c 0,1.51889 0.15697,3.20692 0.71875,4.8125 l 14.625,0 c -0.96404,-2.11535 -1.4375,-4.41622 -1.4375,-6.78125 l 0,-26.9375 c 0,-7.09855 -2.82028,-13.1875 -17.03125,-13.1875 z m -393.90625,9.625 c 2.48986,0 3.4375,1.27309 3.4375,5.75 l 0,2.71875 -6.75,0 0,-2.71875 c 0,-4.47691 1.06537,-5.75 3.3125,-5.75 z m -41.75,2.53125 c 3.05165,0 3.5625,3.30954 3.5625,11.84375 0,8.62091 -0.51085,11.90625 -3.5625,11.90625 -3.04818,0 -3.53125,-3.28534 -3.53125,-11.90625 0,-8.53421 0.48307,-11.84375 3.53125,-11.84375 z m 265.375,0 c 3.05165,0 3.53125,3.30954 3.53125,11.84375 0,8.62091 -0.4796,11.90625 -3.53125,11.90625 -3.04818,0 -3.53125,-3.28534 -3.53125,-11.90625 0,-8.53421 0.48307,-11.84375 3.53125,-11.84375 z m 112.03125,0 c 3.05165,0 3.53125,3.30954 3.53125,11.84375 0,8.62091 -0.4796,11.90625 -3.53125,11.90625 -3.04818,0 -3.53125,-3.28534 -3.53125,-11.90625 0,-8.53421 0.48307,-11.84375 3.53125,-11.84375 z m -192.5625,12.59375 0,6.59375 c 0,2.61817 -0.63585,5.59375 -3.6875,5.59375 -2.16736,0 -3.125,-1.85763 -3.125,-4.5625 0,-2.70487 0.39912,-4.82769 2.96875,-5.84375 1.68534,-0.67622 2.88317,-1.10503 3.84375,-1.78125 z m 125.3125,0 0,6.59375 c 0,2.61817 -0.6671,5.59375 -3.71875,5.59375 -2.16736,0 -3.125,-1.85763 -3.125,-4.5625 0,-2.70487 0.39912,-4.82769 2.96875,-5.84375 1.68534,-0.67622 2.91096,-1.10503 3.875,-1.78125 z m 128.40625,0 0,6.59375 c 0,2.61817 -0.6671,5.59375 -3.71875,5.59375 -2.16736,0 -3.125,-1.85763 -3.125,-4.5625 0,-2.70487 0.39912,-4.82769 2.96875,-5.84375 1.68534,-0.67622 2.91442,-1.10503 3.875,-1.78125 z m -39,4.21875 0,17.9375 14.125,0 0,-17.9375 -14.125,0 z m -417.59375,30.6875 0,17.96875 499.15625,0 0,-17.96875 -499.15625,0 z"
       id="path682"
       style="fill:#e2007a;fill-opacity:1;fill-rule:evenodd;stroke:none" />
  </g>
</svg>
