<?xml version="1.0" encoding="UTF-8" standalone="no"?>
<!-- Created with Inkscape (http://www.inkscape.org/) -->
<svg
   xmlns:svg="http://www.w3.org/2000/svg"
   xmlns="http://www.w3.org/2000/svg"
   version="1.0"
   width="741.09772"
   height="153.87482"
   id="svg2403"
   xml:space="preserve"><defs
     id="defs2406"><clipPath
       id="clipPath2418"><path
         d="M 33.732,348.323 L 470.268,348.323 L 470.268,33.677 L 33.732,33.677 L 33.732,348.323 z"
         id="path2420" /></clipPath><clipPath
       id="clipPath2424"><path
         d="M 0.029999,382.71 L 504.57,382.71 L 504.57,0.03 L 0.029999,0.03 L 0.029999,382.71 z"
         id="path2426" /></clipPath><clipPath
       id="clipPath2452"><path
         d="M 307.952,174.278 L 446.402,174.278 L 446.402,151.274 L 307.952,151.274 L 307.952,174.278 z"
         id="path2454" /></clipPath><clipPath
       id="clipPath2458"><path
         d="M 33.732,348.323 L 470.268,348.323 L 470.268,33.677 L 33.732,33.677 L 33.732,348.323 z"
         id="path2460" /></clipPath><clipPath
       id="clipPath2464"><path
         d="M 0.029999,382.71 L 504.57,382.71 L 504.57,0.03 L 0.029999,0.03 L 0.029999,382.71 z"
         id="path2466" /></clipPath><clipPath
       id="clipPath2486"><path
         d="M 33.732,348.323 L 470.268,348.323 L 470.268,33.677 L 33.732,33.677 L 33.732,348.323 z"
         id="path2488" /></clipPath><clipPath
       id="clipPath2492"><path
         d="M 0.029999,382.71 L 504.57,382.71 L 504.57,0.03 L 0.029999,0.03 L 0.029999,382.71 z"
         id="path2494" /></clipPath><clipPath
       id="clipPath2642"><path
         d="M 33.732,348.323 L 470.268,348.323 L 470.268,33.677 L 33.732,33.677 L 33.732,348.323 z"
         id="path2644" /></clipPath><clipPath
       id="clipPath2648"><path
         d="M 0.029999,382.71 L 504.57,382.71 L 504.57,0.03 L 0.029999,0.03 L 0.029999,382.71 z"
         id="path2650" /></clipPath><clipPath
       id="clipPath2662"><path
         d="M 306.035,270.787 L 369.674,270.787 L 369.674,230.379 L 306.035,230.379 L 306.035,270.787 z"
         id="path2664" /></clipPath></defs><g
     transform="matrix(1.25,0,0,-1.25,-0.475927,477.79919)"
     id="g2412"><g
       transform="matrix(1.1815264,0,0,1.1815264,0.2606586,-69.62997)"
       id="g2718"><path
         d="M 2.186852,380.36017 L 499.80646,380.36017 L 499.80646,280.34347 L 2.186852,280.34347 L 2.186852,380.36017 z"
         id="path2468"
         style="fill:#ed1c24;fill-opacity:1;fill-rule:nonzero;stroke:#ffffff;stroke-width:4.17043638;stroke-linecap:butt;stroke-linejoin:miter;stroke-miterlimit:10;stroke-dasharray:none;stroke-opacity:1" /><path
         d="M 47.810835,349.46058 C 47.810835,360.35388 48.735413,360.65879 53.559938,361.27846 L 55.310735,361.58337 C 56.028758,362.09976 55.925481,364.15547 55.10418,364.56366 C 51.096037,364.3571 46.473148,364.25875 41.953536,364.25875 C 37.227369,364.25875 32.60448,364.3571 28.389782,364.56366 C 27.568481,364.15547 27.465204,362.30631 28.183227,361.58337 L 30.13566,361.27846 C 34.965104,360.65879 35.889682,360.35388 35.889682,349.46058 L 35.889682,311.24306 C 35.889682,300.34976 34.965104,300.04485 30.13566,299.3219 L 28.699614,299.11535 C 27.981591,298.60388 28.084868,296.54817 28.906168,296.13998 C 32.60448,296.34162 37.433924,296.44489 41.953536,296.44489 C 46.473148,296.44489 51.096037,296.34162 55.925481,296.13998 C 56.746781,296.54817 56.850059,298.60388 56.132035,299.11535 L 53.559938,299.42518 C 48.735413,300.04485 47.810835,300.34976 47.810835,311.24306 L 47.810835,324.29042 C 47.810835,327.27071 47.60428,329.73461 50.171459,329.73461 C 51.096037,329.73461 51.917337,328.91331 52.635361,328.19529 C 56.436949,324.29042 68.663016,307.64311 72.980991,302.30219 C 74.112124,300.86615 73.905569,299.83829 72.262968,299.52846 L 69.484317,299.11535 C 68.559739,298.60388 68.559739,296.54817 69.690871,296.13998 C 74.210483,296.34162 78.83829,296.44489 83.869371,296.44489 C 89.313561,296.44489 93.424981,296.34162 97.020015,296.13998 C 97.841316,296.44489 97.944593,298.60388 97.22657,299.11535 L 94.762668,299.42518 C 91.679103,299.83829 89.313561,300.76287 87.159491,303.33005 C 79.762868,311.96108 70.000703,324.18715 61.886057,334.87389 C 60.754925,336.41321 60.961479,337.02796 62.190971,338.26237 C 66.199114,342.27051 70.310535,346.48029 74.72687,350.90155 C 81.813661,357.78178 84.587394,360.2506 94.143005,361.58337 C 95.17086,362.09976 94.964305,364.25875 93.838091,364.56366 C 90.134861,364.46038 86.952936,364.25875 82.536602,364.25875 C 78.735013,364.25875 75.341616,364.3571 71.028558,364.56366 C 70.207258,363.74236 70.000703,362.30631 70.822004,361.58337 L 74.259663,361.11616 C 75.602268,360.33421 75.135061,359.53258 73.285905,357.16704 C 72.056413,355.52444 69.076125,352.13104 67.738438,350.79827 L 57.25825,339.49678 C 53.86977,335.79847 51.509146,333.43293 49.556713,333.43293 C 47.909194,333.43293 47.810835,335.28208 47.810835,338.05582 L 47.810835,349.46058"
         id="path2470"
         style="fill:#ffffff;fill-opacity:1;fill-rule:nonzero;stroke:none" /><path
         d="M 120.11479,323.36585 C 120.11479,312.98894 122.27378,305.79395 126.89667,301.37762 C 131.62283,296.858 138.40471,294.80229 148.0636,294.80229 C 155.15039,294.80229 162.85684,296.75473 168.19776,302.50875 C 173.54359,308.26277 174.97963,316.8938 174.97963,326.24286 L 174.97963,338.46892 C 174.97963,346.58357 174.97963,355.62771 176.4206,358.70636 C 177.13862,360.35388 178.98778,360.76207 180.94021,361.17518 L 183.19756,361.68665 C 184.02377,362.40467 183.81722,364.05219 182.99592,364.56366 C 179.19433,364.3571 176.4206,364.25875 172.10262,364.25875 C 168.09448,364.25875 164.19453,364.3571 160.69786,364.56366 C 159.67,364.25875 159.57164,362.40467 160.49622,361.68665 L 162.54701,361.38173 C 165.11911,360.96863 166.76171,360.2506 167.68629,358.70636 C 169.53544,355.73099 169.63872,346.17538 169.63872,338.46892 L 169.63872,325.62319 C 169.63872,310.00865 164.09125,299.83829 150.63078,299.83829 C 136.349,299.83829 132.03594,311.75453 132.03594,325.93303 L 132.03594,349.46058 C 132.03594,360.35388 132.96052,360.65879 137.78996,361.38173 L 140.04731,361.68665 C 140.77025,362.40467 140.66698,364.15547 139.84076,364.56366 C 135.32114,364.3571 130.69826,364.25875 126.07537,364.25875 C 121.55575,364.25875 116.93287,364.3571 112.82144,364.56366 C 112.00014,364.15547 111.89687,362.40467 112.61489,361.68665 L 114.36569,361.38173 C 119.19021,360.65879 120.11479,360.35388 120.11479,349.46058 L 120.11479,323.36585"
         id="path2472"
         style="fill:#ffffff;fill-opacity:1;fill-rule:nonzero;stroke:none" /><path
         d="M 211.87422,311.24306 C 211.87422,300.34976 210.94965,300.04485 206.1202,299.42518 L 203.85794,299.11535 C 202.93336,298.39733 203.24319,296.54817 204.06449,296.13998 C 208.79066,296.34162 213.41355,296.44489 217.93316,296.44489 C 222.45769,296.44489 227.08058,296.34162 231.60019,296.13998 C 232.42149,296.54817 232.52477,298.39733 231.80675,299.11535 L 229.54448,299.42518 C 224.71504,300.04485 223.79046,300.34976 223.79046,311.24306 L 223.79046,324.3937 C 223.79046,326.54777 223.89374,326.65105 226.9773,326.65105 C 230.36578,326.65105 231.49691,326.24286 233.34607,323.15929 C 235.80997,319.15115 238.68698,313.5004 241.46072,309.18735 C 247.73112,299.63174 253.07204,295.62359 262.93748,295.62359 C 266.53251,295.62359 268.48495,295.93343 269.71444,296.24326 C 270.02427,296.75473 270.02427,297.88586 269.5128,298.29405 C 268.27839,298.39733 265.2981,299.01699 262.42109,301.48089 C 257.59165,305.48904 252.45729,314.21843 244.23445,328.09201 C 243.82626,328.70676 243.6197,329.52806 244.23445,329.83789 C 249.27045,331.8936 256.56379,336.61977 256.56379,346.0721 C 256.56379,353.46872 252.7622,358.29817 247.52457,361.0719 C 243.00496,363.5358 236.01653,364.56366 228.00516,364.56366 C 219.58068,364.56366 210.84637,364.25875 204.37432,363.63908 C 203.55302,363.12761 203.55302,361.48009 204.27105,360.76207 L 206.9415,360.45716 C 211.77095,359.94077 211.87422,358.70636 211.87422,348.84584 L 211.87422,311.24306 z M 223.79046,355.42116 C 223.79046,360.14732 223.89374,360.45716 229.23465,360.45716 C 238.17551,360.45716 243.41315,353.36545 243.41315,345.2508 C 243.41315,335.48864 238.79026,330.55592 228.72318,330.55592 C 223.79046,330.55592 223.79046,330.76247 223.79046,334.05259 L 223.79046,355.42116"
         id="path2474"
         style="fill:#ffffff;fill-opacity:1;fill-rule:evenodd;stroke:none" /><path
         d="M 305.83691,349.46058 C 305.83691,360.35388 306.76148,360.65879 311.59093,361.27846 L 313.85319,361.58337 C 314.57122,362.30631 314.46794,364.15547 313.64664,364.56366 C 309.12703,364.3571 304.50414,364.25875 299.98453,364.25875 C 295.25836,364.25875 290.63547,364.3571 286.11094,364.56366 C 285.28964,364.15547 285.18636,362.30631 285.9093,361.58337 L 288.16665,361.27846 C 292.99609,360.65879 293.92067,360.35388 293.92067,349.46058 L 293.92067,311.24306 C 293.92067,300.34976 292.99609,300.04485 288.16665,299.42518 L 285.9093,299.11535 C 285.18636,298.39733 285.28964,296.54817 286.11094,296.13998 C 290.63547,296.34162 295.46,296.44489 299.98453,296.44489 C 304.50414,296.44489 309.12703,296.34162 313.64664,296.13998 C 314.46794,296.54817 314.57122,298.39733 313.85319,299.11535 L 311.59093,299.42518 C 306.76148,300.04485 305.83691,300.34976 305.83691,311.24306 L 305.83691,349.46058"
         id="path2476"
         style="fill:#ffffff;fill-opacity:1;fill-rule:nonzero;stroke:none" /><path
         d="M 345.0872,311.24306 C 345.0872,300.34976 344.16263,300.04485 339.33318,299.52846 L 335.53159,299.11535 C 334.81357,298.39733 334.91685,296.54817 335.73815,296.13998 C 340.36104,296.34162 346.62653,296.44489 351.14614,296.44489 L 362.86074,296.44489 C 374.88025,296.44489 383.71784,296.34162 388.23745,296.13998 C 389.6735,298.91371 391.93576,306.71853 392.55051,311.0365 C 391.93576,312.06436 390.18988,312.36927 389.2653,311.65125 C 385.67027,303.33005 383.40801,300.34976 370.36064,300.55631 C 361.72961,300.55631 359.98373,301.37762 358.74932,302.81858 C 357.20999,304.56446 357.00344,308.26277 357.00344,313.5004 L 357.00344,326.54777 C 357.00344,329.11987 357.10672,329.32642 359.47226,329.32642 L 364.40006,329.32642 C 373.34093,329.32642 375.0868,329.11987 375.80483,324.80189 L 376.52285,320.69539 C 377.34415,320.07573 379.29658,320.07573 379.81297,320.79867 C 379.70969,324.08387 379.50314,327.6789 379.50314,331.58377 C 379.50314,335.38536 379.70969,339.08367 379.81297,341.8574 C 379.29658,342.6787 377.34415,342.6787 376.52285,341.96068 L 375.80483,338.46892 C 375.0868,334.05259 373.34093,333.94931 364.40006,333.94931 L 359.47226,333.94931 C 357.10672,333.94931 357.00344,334.05259 357.00344,336.72305 L 357.00344,354.08347 C 357.00344,359.94077 357.00344,360.14732 361.41977,360.14732 L 368.30493,360.14732 C 371.07866,360.14732 374.16223,359.94077 376.52285,359.22275 C 379.81297,358.40145 381.35229,355.82935 382.9949,349.87369 C 383.82111,349.25403 385.87191,349.46058 386.28502,350.28188 C 385.67027,354.70313 385.05061,362.81778 384.64242,364.56366 C 383.30473,364.3571 377.34415,364.25875 370.76883,364.25875 L 351.14614,364.25875 C 346.62653,364.25875 341.79708,364.3571 337.89222,364.56366 C 337.07092,364.15547 336.96764,362.30631 337.69058,361.58337 L 339.33318,361.38173 C 344.16263,360.65879 345.0872,360.35388 345.0872,349.46058 L 345.0872,311.24306"
         id="path2478"
         style="fill:#ffffff;fill-opacity:1;fill-rule:nonzero;stroke:none" /><path
         d="M 419.27966,311.24306 C 419.27966,300.34976 418.35508,300.04485 413.52564,299.42518 L 411.26829,299.11535 C 410.34371,298.39733 410.64863,296.54817 411.47484,296.13998 C 416.20101,296.34162 420.8239,296.44489 425.34351,296.44489 C 429.86312,296.44489 434.48601,296.34162 439.00563,296.13998 C 439.83184,296.54817 439.9302,298.39733 439.21218,299.11535 L 436.94992,299.42518 C 432.12539,300.04485 431.20081,300.34976 431.20081,311.24306 L 431.20081,324.3937 C 431.20081,326.54777 431.29917,326.65105 434.38274,326.65105 C 437.77613,326.65105 438.90235,326.24286 440.7515,323.15929 C 443.22032,319.15115 446.09733,313.5004 448.87107,309.18735 C 455.13656,299.63174 460.47747,295.62359 470.34291,295.62359 C 473.93795,295.62359 475.89038,295.93343 477.12479,296.24326 C 477.4297,296.75473 477.4297,297.88586 476.91824,298.29405 C 475.68383,298.39733 472.70846,299.01699 469.82653,301.48089 C 465.002,305.48904 459.86272,314.21843 451.6448,328.09201 C 451.23169,328.70676 451.03006,329.52806 451.6448,329.83789 C 456.6808,331.8936 463.97415,336.61977 463.97415,346.0721 C 463.97415,353.46872 460.17256,358.29817 454.93,361.0719 C 450.41039,363.5358 443.42688,364.56366 435.41059,364.56366 C 426.98611,364.56366 418.2518,364.25875 411.77976,363.63908 C 410.95846,363.12761 410.95846,361.48009 411.67648,360.76207 L 414.35186,360.45716 C 419.17638,359.94077 419.27966,358.70636 419.27966,348.84584 L 419.27966,311.24306 z M 431.20081,355.42116 C 431.20081,360.14732 431.29917,360.45716 436.645,360.45716 C 445.58095,360.45716 450.8235,353.36545 450.8235,345.2508 C 450.8235,335.48864 446.20061,330.55592 436.12861,330.55592 C 431.20081,330.55592 431.20081,330.76247 431.20081,334.05259 L 431.20081,355.42116"
         id="path2480"
         style="fill:#ffffff;fill-opacity:1;fill-rule:evenodd;stroke:none" /></g></g></svg>